<svg width="109" height="59" viewBox="0 0 109 59" fill="none" xmlns="http://www.w3.org/2000/svg">
	<g opacity="0.9">
		<path fill-rule="evenodd" clip-rule="evenodd" d="M84.1 35L77.5 22.6L70.9 35H61L72 16.9L61 0H70.9L77.5 10.2L84.1 0H94L81.9 16.9L94 35H84.1ZM14 40V38H94V40H14ZM60 35L68 22.6V12L60 0V12.4H49V0H40V3.8C41.6 5.1 43 6.7 44 8.7C45.3 11.2 46 14.1 46 17.5C46 20.8 45.3 23.7 43.9 26.3C42.8 28.2 41.5 29.8 40 31.1V35H49V20.3H60V35ZM45 17.5C45 20.8 44.3 23.7 42.9 26.3C41.5 28.9 39.7 30.9 37.5 32.2C35.7 33.4 33.7 34.1 31.6 34.5C29.5 34.8 27.2 35 24.8 35H14V0H24.8C27.2 0 29.5 0.2 31.7 0.5C33.8 0.8 35.8 1.6 37.7 2.8C40 4.3 41.8 6.3 43.1 8.8C44.3 11.2 45 14.2 45 17.5ZM31.6 7.8C33.2 8.7 34.4 10 35.2 11.6C36 13.2 36.4 15.2 36.5 17.4C36.5 19.8 36.1 21.7 35.4 23.3C34.6 24.9 33.5 26.2 32.1 27.1C30.9 27.9 29.6 28.3 28.3 28.4C26.9 28.5 25.3 28.5 23.3 28.5H23.1V6.6H23.3C25.1 6.6 26.6 6.6 27.9 6.7C29.2 6.8 30.4 7.1 31.6 7.8ZM18 43V44H16V47H18V48H15V43H18ZM18 47V44H19V47H18ZM33 45H31V43H30V48H31V46H33V48H34V43H33V45ZM49 43V44H47V48H46V44H44V43H49ZM61 44H60V43H59V48H60V45H61V46H62V45H63V48H64V43H63V44H62V45H61V44ZM74 43H75V47H78V48H74V43ZM90 44H89V43H88V44H89V45H90V46H89V47H88V48H89V47H90V46H91V47H92V48H93V47H92V46H91V45H92V44H93V43H92V44H91V45H90V44Z" fill="white" fill-opacity="0.7"/>
		<rect y="42" width="109" height="9" fill="#30333D"/>
		<path d="M12.1152 51.6865H8.17773V54.3525H12.7988V56H6.12695V46.0469H12.7852V47.708H8.17773V50.0801H12.1152V51.6865ZM17.5635 49.4785L19.4297 46.0469H21.7881L18.8896 50.9824L21.8633 56H19.4775L17.5635 52.5137L15.6494 56H13.2637L16.2373 50.9824L13.3389 46.0469H15.6973L17.5635 49.4785ZM28.5215 53.9492H24.9258L24.2422 56H22.0615L25.7666 46.0469H27.667L31.3926 56H29.2119L28.5215 53.9492ZM25.4795 52.2881H27.9678L26.7168 48.5625L25.4795 52.2881ZM35.002 46.0469L37.5586 53.2656L40.1016 46.0469H42.7949V56H40.7373V53.2793L40.9424 48.583L38.2559 56H36.8477L34.168 48.5898L34.373 53.2793V56H32.3223V46.0469H35.002ZM53.2334 53.3887C53.2334 53.0013 53.0967 52.7051 52.8232 52.5C52.5498 52.2904 52.0576 52.0716 51.3467 51.8438C50.6357 51.6113 50.0729 51.3835 49.6582 51.1602C48.528 50.5495 47.9629 49.7269 47.9629 48.6924C47.9629 48.1546 48.1133 47.6761 48.4141 47.2568C48.7194 46.833 49.1546 46.5026 49.7197 46.2656C50.2894 46.0286 50.9274 45.9102 51.6338 45.9102C52.3447 45.9102 52.9782 46.04 53.5342 46.2998C54.0902 46.555 54.5208 46.9173 54.8262 47.3867C55.1361 47.8561 55.291 48.3893 55.291 48.9863H53.2402C53.2402 48.5306 53.0967 48.1774 52.8096 47.9268C52.5225 47.6715 52.1191 47.5439 51.5996 47.5439C51.0983 47.5439 50.7087 47.651 50.4307 47.8652C50.1527 48.0749 50.0137 48.3529 50.0137 48.6992C50.0137 49.0228 50.1755 49.2939 50.499 49.5127C50.8271 49.7314 51.3079 49.9365 51.9414 50.1279C53.1081 50.4788 53.958 50.9141 54.4912 51.4336C55.0244 51.9531 55.291 52.6003 55.291 53.375C55.291 54.2363 54.9652 54.9131 54.3135 55.4053C53.6618 55.8929 52.7845 56.1367 51.6816 56.1367C50.916 56.1367 50.2188 55.9977 49.5898 55.7197C48.9609 55.4372 48.4801 55.0521 48.1475 54.5645C47.8193 54.0768 47.6553 53.5117 47.6553 52.8691H49.7129C49.7129 53.9674 50.3691 54.5166 51.6816 54.5166C52.1693 54.5166 52.5498 54.4186 52.8232 54.2227C53.0967 54.0221 53.2334 53.7441 53.2334 53.3887ZM60.1172 50.5312L62.1885 46.0469H64.4307L61.1631 52.3906V56H59.0781V52.3906L55.8105 46.0469H58.0596L60.1172 50.5312ZM70.3916 53.3887C70.3916 53.0013 70.2549 52.7051 69.9814 52.5C69.708 52.2904 69.2158 52.0716 68.5049 51.8438C67.7939 51.6113 67.2311 51.3835 66.8164 51.1602C65.6862 50.5495 65.1211 49.7269 65.1211 48.6924C65.1211 48.1546 65.2715 47.6761 65.5723 47.2568C65.8776 46.833 66.3128 46.5026 66.8779 46.2656C67.4476 46.0286 68.0856 45.9102 68.792 45.9102C69.5029 45.9102 70.1364 46.04 70.6924 46.2998C71.2484 46.555 71.679 46.9173 71.9844 47.3867C72.2943 47.8561 72.4492 48.3893 72.4492 48.9863H70.3984C70.3984 48.5306 70.2549 48.1774 69.9678 47.9268C69.6807 47.6715 69.2773 47.5439 68.7578 47.5439C68.2565 47.5439 67.8669 47.651 67.5889 47.8652C67.3109 48.0749 67.1719 48.3529 67.1719 48.6992C67.1719 49.0228 67.3337 49.2939 67.6572 49.5127C67.9854 49.7314 68.4661 49.9365 69.0996 50.1279C70.2663 50.4788 71.1162 50.9141 71.6494 51.4336C72.1826 51.9531 72.4492 52.6003 72.4492 53.375C72.4492 54.2363 72.1234 54.9131 71.4717 55.4053C70.82 55.8929 69.9427 56.1367 68.8398 56.1367C68.0742 56.1367 67.377 55.9977 66.748 55.7197C66.1191 55.4372 65.6383 55.0521 65.3057 54.5645C64.9775 54.0768 64.8135 53.5117 64.8135 52.8691H66.8711C66.8711 53.9674 67.5273 54.5166 68.8398 54.5166C69.3275 54.5166 69.708 54.4186 69.9814 54.2227C70.2549 54.0221 70.3916 53.7441 70.3916 53.3887ZM81.3359 47.708H78.2871V56H76.2363V47.708H73.2285V46.0469H81.3359V47.708ZM88.5 51.6865H84.5625V54.3525H89.1836V56H82.5117V46.0469H89.1699V47.708H84.5625V50.0801H88.5V51.6865ZM93.0664 46.0469L95.623 53.2656L98.166 46.0469H100.859V56H98.8018V53.2793L99.0068 48.583L96.3203 56H94.9121L92.2324 48.5898L92.4375 53.2793V56H90.3867V46.0469H93.0664Z" fill="white" fill-opacity="0.7"/>
	</g>
</svg>
