<?xml version="1.0" standalone="no"?>
<!DOCTYPE svg PUBLIC "-//W3C//DTD SVG 1.0//EN" "http://www.w3.org/TR/2001/REC-SVG-20010904/DTD/svg10.dtd">
<svg xmlns="http://www.w3.org/2000/svg" xmlns:xlink="http://www.w3.org/1999/xlink" id="body_1" width="2731" height="2731">

<g transform="matrix(1.3334961 0 0 1.3334961 0 0)">
	<g transform="matrix(0.1 0 -0 -0.1 0 2048)">
        <path d="M9788 20470C 7962 20382 6273 19849 4745 18880C 3661 18191 2694 17278 1928 16220C 1456 15566 1052 14834 743 14072C 427 13292 211 12476 95 11630C 27 11133 7 10805 7 10240C 7 9675 27 9347 95 8850C 292 7412 787 6042 1555 4817C 2341 3560 3409 2471 4645 1665C 6616 379 8941 -184 11300 55C 13361 264 15333 1115 16915 2477C 17286 2796 17688 3198 18003 3565C 19320 5096 20150 6967 20400 8965C 20456 9413 20474 9732 20474 10240C 20474 10972 20420 11537 20284 12235C 19697 15230 17764 17831 15048 19282C 13894 19897 12597 20293 11300 20425C 10860 20469 10189 20489 9788 20470zM10459 18134C 10560 18109 10708 18043 10788 17988C 10814 17970 10872 17920 10918 17876C 11104 17697 11212 17463 11227 17203L11227 17203L11233 17100L11306 17060C 11346 17038 11432 16984 11497 16941C 12865 16023 13849 13691 14055 10880C 14091 10385 14102 9609 14080 9145C 14025 7999 13858 6966 13573 6000C 13509 5784 13489 5749 13408 5715C 13299 5670 13171 5723 13126 5832C 13101 5890 13106 5931 13159 6109C 13820 8325 13836 11107 13200 13354C 12786 14818 12142 15928 11375 16505C 11270 16584 11138 16670 11122 16670C 11118 16670 11096 16638 11072 16600C 11015 16507 10888 16375 10795 16311C 10493 16102 10110 16068 9783 16220C 9669 16273 9599 16322 9502 16415C 9363 16547 9268 16710 9219 16898C 9193 16998 9184 17181 9199 17291C 9256 17684 9543 18014 9926 18125C 10100 18176 10283 18179 10459 18134zM7235 14856C 7546 14825 7972 14764 8063 14738C 8155 14711 8216 14618 8208 14516C 8197 14384 8083 14304 7940 14329C 7628 14383 7355 14418 7060 14441C 6861 14457 6336 14457 6155 14441C 5466 14380 4942 14213 4530 13922C 4392 13825 4181 13611 4094 13480C 3892 13176 3800 12856 3800 12455C 3800 11930 3969 11363 4315 10729C 4356 10655 4392 10575 4396 10552C 4406 10488 4383 10423 4335 10374C 4284 10324 4236 10306 4164 10312C 4052 10321 4009 10376 3831 10735C 3591 11218 3444 11677 3388 12120C 3380 12184 3375 12322 3376 12475C 3377 12698 3380 12741 3403 12870C 3505 13439 3779 13889 4237 14237C 4685 14578 5327 14798 6055 14859C 6127 14865 6201 14872 6220 14874C 6314 14885 7085 14871 7235 14856zM14225 14860C 15051 14801 15687 14593 16188 14218C 16317 14122 16517 13921 16615 13788C 16849 13474 16988 13111 17031 12701C 17048 12538 17037 12182 17011 12015C 16903 11343 16613 10666 16122 9945C 15909 9631 15579 9213 15514 9174C 15411 9112 15280 9148 15218 9255C 15190 9305 15187 9399 15213 9446C 15222 9464 15275 9533 15331 9601C 15992 10404 16423 11223 16564 11945C 16609 12175 16624 12496 16600 12695C 16519 13354 16138 13845 15475 14144C 15092 14316 14629 14413 14058 14440C 13839 14450 13807 14457 13757 14504C 13648 14606 13679 14788 13815 14851C 13862 14873 14001 14876 14225 14860zM12184 14668C 12207 14661 12243 14638 12265 14615C 12334 14547 12347 14459 12304 14371C 12264 14291 12224 14271 12023 14225C 10704 13927 9254 13304 7945 12472C 6062 11275 4603 9718 4047 8310C 3898 7933 3819 7583 3804 7234L3804 7234L3797 7083L3916 7077C 4056 7070 4192 7038 4302 6987C 4827 6745 5050 6118 4794 5606C 4738 5494 4691 5430 4600 5339C 4465 5203 4317 5118 4132 5068C 4015 5037 3804 5032 3680 5058C 3011 5197 2664 5923 2976 6530C 3054 6682 3171 6810 3333 6919L3333 6919L3380 6951L3380 7153C 3380 7512 3429 7809 3552 8190C 3910 9301 4803 10513 6075 11615C 7682 13007 9796 14120 11735 14595C 11856 14624 11982 14655 12015 14663C 12091 14682 12132 14683 12184 14668zM10435 10506C 10552 10466 10644 10408 10736 10315C 10802 10249 10826 10216 10864 10139C 10928 10009 10944 9940 10944 9800C 10944 9669 10927 9595 10875 9484C 10740 9202 10431 9032 10123 9070C 9801 9110 9545 9349 9484 9666C 9410 10056 9662 10436 10055 10526C 10154 10549 10337 10539 10435 10506zM5337 9291C 5358 9280 5449 9193 5545 9090C 6293 8290 7328 7487 8460 6828C 10879 5419 13552 4836 15180 5362C 15391 5430 15636 5541 15626 5563C 15594 5634 15548 5757 15535 5805C 15443 6159 15556 6546 15826 6800C 16139 7094 16599 7162 16980 6970C 17088 6916 17161 6862 17255 6765C 17423 6594 17517 6392 17539 6152C 17579 5719 17346 5316 16948 5130C 16803 5062 16720 5046 16525 5045C 16378 5045 16344 5048 16270 5068C 16181 5092 16029 5160 15966 5203L15966 5203L15929 5228L15847 5182C 14967 4694 13586 4611 12025 4951C 9587 5483 6941 6986 5209 8823C 5071 8969 5049 8997 5035 9043C 5012 9120 5029 9189 5084 9247C 5154 9321 5248 9337 5337 9291zM7285 5739C 7346 5722 7401 5659 7435 5570C 7577 5196 7672 4974 7809 4700C 8087 4144 8407 3688 8756 3350C 8904 3207 9009 3121 9170 3014C 9814 2585 10497 2563 11148 2949C 11563 3194 11953 3601 12304 4155C 12414 4328 12448 4359 12541 4368C 12663 4380 12770 4280 12770 4156C 12770 4101 12737 4035 12616 3850C 12418 3548 12206 3287 11964 3049C 11530 2624 11080 2374 10575 2279C 10420 2249 10110 2242 9944 2264C 8996 2389 8128 3149 7464 4435C 7254 4842 7010 5436 7010 5539C 7011 5600 7039 5659 7086 5698C 7146 5748 7208 5760 7285 5739z" stroke="none" fill="#000000" fill-rule="nonzero" />
        <path d="M10080 17724C 9872 17680 9690 17503 9635 17293C 9615 17218 9616 17074 9636 16996C 9690 16785 9873 16610 10086 16565C 10175 16546 10233 16546 10327 16566C 10517 16605 10666 16722 10745 16895C 10851 17124 10804 17387 10626 17564C 10480 17710 10282 17768 10080 17724z" stroke="none" fill="#000000" fill-rule="nonzero" />
        <path d="M3744 6636C 3535 6585 3360 6413 3305 6205C 3286 6131 3286 5982 3305 5910C 3358 5708 3520 5544 3725 5484C 3805 5461 3955 5461 4035 5484C 4222 5539 4377 5684 4440 5863C 4471 5950 4478 6112 4455 6199C 4400 6412 4226 6586 4019 6635C 3943 6653 3815 6653 3744 6636z" stroke="none" fill="#000000" fill-rule="nonzero" />
        <path d="M16360 6627C 16219 6584 16116 6509 16036 6392C 15913 6213 15898 5986 15996 5791C 16037 5710 16154 5586 16233 5541C 16372 5463 16553 5444 16705 5494C 16936 5569 17096 5772 17116 6016C 17136 6278 16960 6542 16711 6621C 16609 6654 16456 6657 16360 6627z" stroke="none" fill="#000000" fill-rule="nonzero" />
	</g>
</g>
</svg>